<?xml version="1.0" standalone="no"?><!DOCTYPE svg PUBLIC "-//W3C//DTD SVG 1.1//EN" "http://www.w3.org/Graphics/SVG/1.1/DTD/svg11.dtd"><svg t="1639970284245" class="icon" viewBox="0 0 1170 1024" version="1.1" xmlns="http://www.w3.org/2000/svg" p-id="11333" xmlns:xlink="http://www.w3.org/1999/xlink" width="228.515625" height="200"><defs><style type="text/css"></style></defs><path d="M430.655478 270.66518A285.776474 285.776474 0 0 1 564.239931 227.518377l42.415502-26.733142q-12.025851-0.975069-24.376725-0.975069A313.240918 313.240918 0 0 0 291.626889 399.780568l42.334246-26.814398A281.713687 281.713687 0 0 1 430.655478 270.66518zM363.131949 204.604255l12.269618 29.25207 15.844872-27.464444 31.608487-2.600184-21.370263-23.564167 7.313018-30.79593-28.927047 13.00092-27.139421-16.494917 3.412741 31.689743-23.970446 20.476449 30.958441 6.50046zM584.716381 106.772331L569.521555 78.820353l-12.919664 29.089559-31.283464 5.93167 23.645423 21.20775-4.062787 31.445976 27.545699-15.926127 28.68328 13.650966-6.581716-31.120953 21.776541-23.076633-31.608486-3.25023zM239.866975 352.814744l25.026772 19.663891 0.406278-31.689742 26.408119-17.79501-30.145883-10.156968-8.694365-30.633418-18.93259 25.43305-31.770999-1.137581 18.3638 25.920584-10.888271 29.820861 30.227139-9.425667z" fill="#63D11C" p-id="11334"></path><path d="M98.644481 521.907961A484.853063 484.853063 0 0 1 799.800352 78.007796l26.57063-16.819941A513.048809 513.048809 0 0 0 499.479098 6.909014 512.480018 512.480018 0 0 0 71.911339 538.727901zM806.625835 828.323396l-12.025851-29.414582-16.088639 27.383188-31.527231 2.275161 21.04524 23.726679-7.475529 30.795929 29.089558-12.675897 26.976909 16.738685-3.168974-31.527231 24.132958-20.557705-30.958441-6.744227zM584.228846 924.530204l15.11357 28.11449 13.163431-29.008303 31.202208-5.606647-23.482912-21.370262 4.306555-31.527231-27.626955 15.682359-28.602024-13.813477 6.419204 31.039697-22.101564 22.995377 31.608487 3.493997z" fill="#63D11C" p-id="11335"></path><path d="M1068.10684 501.919046a484.690552 484.690552 0 0 1-700.993359 443.818909l-26.570631 16.901196a511.911228 511.911228 0 0 0 754.215876-477.540045zM1162.607278 347.776887L983.194581 65.006876a48.75345 48.75345 0 0 0-40.627875-22.426588 48.103404 48.103404 0 0 0-25.758073 7.475529L22.426587 616.083375A48.75345 48.75345 0 0 0 7.394273 682.550579L186.888226 965.401847a48.75345 48.75345 0 0 0 66.710971 14.951058L1147.493708 414.406603a48.18466 48.18466 0 0 0 15.11357-66.629716z m-29.414582 43.959361l-893.813255 566.027558a21.289007 21.289007 0 0 1-11.457061 3.331486 21.532774 21.532774 0 0 1-18.120032-9.994457l-178.762651-282.688756a21.61403 21.61403 0 0 1 6.662971-29.577093L931.190901 73.132451a21.370262 21.370262 0 0 1 29.495837 6.662971l179.250186 282.688756a21.776541 21.776541 0 0 1-6.744228 29.25207z" fill="#63D11C" p-id="11336"></path><path d="M832.952698 650.942092a285.776474 285.776474 0 0 1-230.278797 145.772817L560.664678 823.448051a312.834639 312.834639 0 0 0 314.622266-199.401612zM933.791085 675.806352l-25.108027-19.338869-0.162512 31.689743-26.245607 17.876265 30.308395 9.913202 8.856877 30.470906 18.770078-25.676817 31.689743 0.893813-18.607567-25.758073 10.725759-29.739604-30.227139 9.669434zM379.870634 688.157226c14.057245 25.270538 20.557705 40.627875 19.420124 45.665732a18.770078 18.770078 0 0 1-8.125575 10.969526l-117.41456 74.755291a13.163432 13.163432 0 0 1-20.395193-4.956601l-39.977829-63.054463 145.447793-92.387788-64.192043-101.000898-180.225254 114.570608 15.032314 23.645424L284.395127 597.63832l34.208671 53.872563-120.096 76.461661L178.762651 696.770336l-24.376725 15.763615 77.761753 122.452416q20.151426 31.689743 50.29731 12.43213L413.429258 763.80633A41.196665 41.196665 0 0 0 430.655478 741.05472q2.193905-12.675897-21.939053-60.61679zM449.994346 497.856258l154.792205-98.400713L619.575097 422.532178l24.376726-15.276081-29.008303-45.746988-89.381326 56.879025c-6.012926-5.36288-11.700828-10.075713-16.901196-14.057244l-23.482912 20.882727c5.769158 3.412742 10.644503 6.581716 14.707291 9.506923l-88.162489 55.985212 29.82086 46.965824 24.376725-15.276081z" fill="#63D11C" p-id="11337"></path><path d="M558.795796 468.441677l-12.269618-19.420125-24.376725 15.601104 12.269618 19.420125L464.945404 528.164653l75.567848 118.958419 24.376725-15.276081-8.125575-12.269618 45.259453-28.845792 29.577094 46.47829 24.376725-15.519849-29.495838-46.559545 45.990755-29.170814 7.394273 11.538316 24.376726-15.276081-75.405337-118.389628zM503.785653 535.477671l45.340709-28.845792 12.838408 20.313938-45.259453 28.764536z m39.165272 61.591859L529.950005 576.918104l45.259453-28.845792 12.594641 19.826403zM658.171579 523.45182L612.343336 552.541378l-12.594642-19.745147L645.739449 503.787928z m-72.236362-12.107107l-12.919665-20.313938 45.990755-29.170814 12.919665 20.232682zM807.032114 282.122241l39.896573-25.351794q1.462604 45.096942-5.850414 60.698045a15.276081 15.276081 0 0 1-3.087718 4.956601l17.469986 16.25115 44.446896-31.202208a196.801428 196.801428 0 0 1-39.084016 81.255751l26.326863 11.700828q52.084936-68.742365 42.740525-161.617688l-26.570631 1.950138a252.461617 252.461617 0 0 1 0.812558 35.264996 1440.989479 1440.989479 0 0 1-34.127415 25.351794 291.708144 291.708144 0 0 0 2.112649-60.61679l65.0046-41.11541-14.219756-22.426587-50.947355 32.5023a289.432983 289.432983 0 0 0-23.889191-18.282544L825.152146 211.267226a179.656464 179.656464 0 0 1 22.426587 13.325944L792.812358 260.020677z" fill="#63D11C" p-id="11338"></path><path d="M855.216774 381.904302l0.487534-30.064627q-29.658349-10.725759-56.879025-18.120033l-7.63804-12.025851 25.270538-16.25115-14.869802-23.401656-25.189283 16.25115-27.626955-43.471826-23.807935 15.194825 27.545699 43.390571L723.176179 332.582062l14.788547 23.401656 29.008303-18.445055A255.305568 255.305568 0 0 1 780.055205 431.876589l26.57063 18.851334a344.118103 344.118103 0 0 0-9.1819-67.035994l66.385948 104.494895 23.889191-15.113569-70.611247-111.157867q7.638041 3.737765 38.108947 19.988914zM974.500216 259.451886l-27.301933 2.437673a244.17353 244.17353 0 0 1-56.879025 180.143999l26.976909 12.269618a267.087652 267.087652 0 0 0 48.022149-92.794067 333.148577 333.148577 0 0 1 65.898413 20.395193l6.581716-29.333325a444.468955 444.468955 0 0 0-66.792227-15.519849 313.890964 313.890964 0 0 0 3.493998-77.599242z" fill="#63D11C" p-id="11339"></path></svg>