<?xml version="1.0" standalone="no"?><!DOCTYPE svg PUBLIC "-//W3C//DTD SVG 1.1//EN" "http://www.w3.org/Graphics/SVG/1.1/DTD/svg11.dtd"><svg t="1639964726215" class="icon" viewBox="0 0 1024 1024" version="1.1" xmlns="http://www.w3.org/2000/svg" p-id="2197" xmlns:xlink="http://www.w3.org/1999/xlink" width="200" height="200"><defs><style type="text/css"></style></defs><path d="M921.3 447.8c0-17.5-14.2-31.7-31.7-31.7s-31.7 14.2-31.7 31.7v79.9c0 1.1 0.1 2.3 0.2 3.4v327.3H161.3V161.6h696.8v6.1c-0.1 1.1-0.2 2.2-0.2 3.4v82.4c0 17.5 14.2 31.7 31.7 31.7s31.7-14.2 31.7-31.7v-53.8h0.2v-38c0-34.9-28.4-63.3-63.3-63.3H161.3c-34.9 0-63.3 28.4-63.3 63.3v696.8c0 34.9 28.4 63.3 63.3 63.3h696.8c34.9 0 63.3-28.4 63.3-63.3V481.9h-0.2v-34.1z" fill="#4D4D4D" p-id="2198"></path><path d="M664.9 342l-200 271.7-111-88.6c-13.7-10.9-33.6-8.7-44.5 5-10.9 13.7-8.7 33.6 5 44.5L449 682.1c2.9 2.4 6.2 4.1 9.6 5.2 4.1 1.8 8.5 2.8 12.8 2.8 9.7 0 19.3-4.5 25.5-12.9l219-297.6c10.4-14.1 7.4-33.9-6.7-44.3-14.1-10.4-33.9-7.4-44.3 6.7z" fill="#4D4D4D" p-id="2199"></path><path d="M852.2438 358.782382a38.4 38.4 0 1 0 74.744452-17.649557 38.4 38.4 0 1 0-74.744452 17.649557Z" fill="#4D4D4D" p-id="2200"></path></svg>
