<?xml version="1.0" standalone="no"?><!DOCTYPE svg PUBLIC "-//W3C//DTD SVG 1.1//EN" "http://www.w3.org/Graphics/SVG/1.1/DTD/svg11.dtd"><svg t="1640595999091" class="icon" viewBox="0 0 1024 1024" version="1.1" xmlns="http://www.w3.org/2000/svg" p-id="3087" xmlns:xlink="http://www.w3.org/1999/xlink" width="200" height="200"><defs><style type="text/css"></style></defs><path d="M933.9 342.8l-16.4-22.3c-8.3-11.3-17.5-35.4-18.7-49.4l-2.5-27.5c-3.1-34.1-28-70.2-58.8-85.2l-24.9-12.1c-12.6-6.1-31.9-23.2-39.6-35L758 88c-18.6-28.7-57.4-49.2-91.7-48.1l-27.6 0.8c-14 0.4-39.1-5.7-51.3-12.6l-24.1-13.6c-29.8-16.8-73.7-16.9-103.5 0l-24.1 13.6c-12.2 6.9-37.3 13.1-51.3 12.6l-27.6-0.8c-34.2-1-73.1 19.3-91.7 48.1l-15 23.2c-7.6 11.8-26.9 28.9-39.6 35l-24.9 12.1c-30.8 15-55.7 51.1-58.8 85.2l-2.5 27.5c-1.3 14-10.4 38.1-18.7 49.4l-16.4 22.3c-20.3 27.6-25.6 71.1-12.5 102.8L87.3 471c5.4 12.9 8.5 38.6 6.4 52.4l-4.2 27.3c-5.2 33.8 10.4 74.9 36.7 96.8l21.2 17.7c10.8 9 25.4 30.2 30 43.5l9 26.1c1.7 4.8 3.7 9.4 6.2 13.8L94.3 917.5h142.6l68.6 104.3 86.6-148.3c21.5 8 45.8 10 66.5 4.2l26.6-7.4c13.5-3.8 39.3-3.8 52.8 0l26.6 7.4c19.6 5.5 42.7 4 63.4-3.1l85.9 147.2 68.6-104.3h142.6L828.6 752c3.3-5.4 5.9-11.1 8-17.1l9-26.1c4.6-13.2 19.2-34.5 30-43.5l21.2-17.7c26.3-21.9 41.9-62.9 36.7-96.8l-4.2-27.3c-2.1-13.8 1-39.5 6.4-52.4l10.6-25.5c13.1-31.7 7.9-75.2-12.4-102.8zM511.6 806.6c-199 0-360.4-161.4-360.4-360.4S312.6 85.8 511.6 85.8c199 0 360.4 161.4 360.4 360.4S710.6 806.6 511.6 806.6z m0 0" p-id="3088"></path><path d="M511.6 123.7c-178.1 0-322.5 144.4-322.5 322.5s144.4 322.5 322.5 322.5 322.5-144.4 322.5-322.5-144.4-322.5-322.5-322.5z m115.8 480.8l-110.9-58.9-112.1 56.6 21.8-123.7-88.5-89.1L462 371.9l57.4-111.7L574.5 373l124 20.1-90.3 87.3 19.2 124.1z m0 0" p-id="3089"></path></svg>
