<?xml version="1.0" standalone="no"?><!DOCTYPE svg PUBLIC "-//W3C//DTD SVG 1.1//EN" "http://www.w3.org/Graphics/SVG/1.1/DTD/svg11.dtd"><svg t="1639971746966" class="icon" viewBox="0 0 1024 1024" version="1.1" xmlns="http://www.w3.org/2000/svg" p-id="4210" xmlns:xlink="http://www.w3.org/1999/xlink" width="200" height="200"><defs><style type="text/css"></style></defs><path d="M581.6 197.28l32.4544-32.4544-30.3104-30.2976a2721.0176 2721.0176 0 0 1-32.5952 32.3008l30.4512 30.4512z m321.2224 345.3696l-46.9696-46.9824 38.848-38.848 46.9696 46.9824-38.848 38.848z m-106.5088-106.5088l38.848-38.848 46.3744 46.3744-38.848 38.8672-46.3744-46.3936z" fill="#5ACA86" p-id="4211"></path><path d="M724.0832 1.1648L0 0.3456 1023.6544 1024l0.0192-723.232L724.0832 1.1648z m108.3328 326.9312l-11.4688 11.488-79.424-79.4048 11.488-11.488 79.4048 79.4048z m-91.968-115.5456l4.2944 17.7472c-30.0032 6.3424-60.96 7.9296-92.8896 4.7552 2.0288-5.728 3.9232-11.6928 5.664-17.9136 28.7552 3.6928 56.4032 2.144 82.9312-4.5888zM582.5216 111.2512l26.9376-26.9184 12.2176 12.2176-26.9184 26.9376 30.3104 30.2912 26.9184-26.9184 12.2368 12.2368-26.9376 26.9376 22.656 22.6432-11.008 11.008-22.656-22.6432-32.4224 32.4224 28.6016 28.6336-11.008 11.008-28.6208-28.6208-46.528 46.528-12.256-12.2176 46.528-46.528-31.4496-31.4496c-23.8336 17.8112-48.1408 24.5184-72.9088 20.1152 0.3072-6.2144 0.3072-12.4352 0-18.6496 20.3904 4.5888 40.5248-0.1024 60.3648-14.0096l-25.0304-25.0304 11.008-11.008 26.24 26.24a2425.1712 2425.1712 0 0 0 32.6976-32.2176l-19.2832-19.296 11.008-11.008 19.3024 19.296zM541.6576 33.3504l16.384 3.2064a671.0336 671.0336 0 0 1-7.5008 50.3552 389.344 389.344 0 0 0-18.976-3.6992c4.1792-15.36 7.5584-32.0192 10.0928-49.8624z m2.6112 277.1584L493.2992 259.84l-36.1216-37.6384c-16.5184-17.152-22.5408-34.9952-18.0544-53.5808-8.064-0.3072-21.0048 0.4096-38.8672 2.1504l6.432-18.976c17.76 0.3264 30.5472 0.5824 38.3424 0.8512l51.5008-51.5008-18.208-18.208 11.3152-11.3152 30.0032 30.0032-65.2864 65.2544c-3.6672 16.3328 1.4144 31.6544 15.2576 45.9776l35.4944 37.0624 55.5584 52.7936c-5.44 2.6688-10.8992 5.2672-16.3968 7.7952z m30.0032 37.3312l65.2608-65.2608a311.552 311.552 0 0 1-38.3424 0.0832c2.6432-5.9328 5.0112-11.8272 7.04-17.76 28.7744 2.8672 61.3696-0.9728 97.7856-11.4688l4.128 17.3056a378.592 378.592 0 0 1-42.1568 8.8L586.9376 360.5696 574.272 347.84z m119.5008 76.6784c-12.6464 12.6464-25.3376 12.576-38.0864-0.1728a3364.2304 3364.2304 0 0 1-26.0352-26.304 616 616 0 0 0 11.488-16.0768 331.6032 331.6032 0 0 0 22.8096 25.248c7.04 7.04 14.0096 7.1104 20.9664 0.1536l55.712-55.712-54.1952-54.176 11.4688-11.488 96.896 96.896-11.488 11.4688-29.696-29.6768c0.0128 0-59.84 59.84-59.84 59.84z m201.9968 150.2528l-12.5248-12.5248 8.256-8.256-46.9824-46.9824-56.9216 56.9216-13.1584-13.1392 56.9216-56.9408-46.3744-46.3744-8.256 8.256-12.544-12.544 69.7728-69.7728 58.9312 58.9184 33.3568-33.3568 13.1392 13.1584-33.3568 33.3632 59.5328 59.5136c-0.0064-0.0192-69.792 69.76-69.792 69.76z" fill="#5ACA86" p-id="4212"></path><path d="M532.1152 0.8128l484.6784 471.6032-173.2736 172.2496-484.6912-471.5904L532.1152 0.8128z" fill="#5ACA86" p-id="4213"></path><path d="M542.4448 71.1616l12.3968 13.2288-21.0688 19.7504 86.2016 91.9744 39.5264-37.0496-103.936-110.8992 11.3792-10.6624 116.0384 123.808-71.6672 67.1808-12.1024-12.9216 9.3824-8.8-86.208-91.9744-44.7552 41.952c-9.4336 8.8384-9.9648 17.728-1.6064 26.6432l71.0656 75.8208c8.2624 8.8192 16.4352 11.1744 24.5248 7.0592 7.9808-4.0256 17.6384-10.464 28.9664-19.3472 2.0032 5.632 4.6016 11.4816 7.7824 17.5552-12.0064 8.5632-21.9648 14.9952-29.856 19.3152-14.464 7.7824-28.3328 4.6016-41.6-9.5488L460.2176 192.416c-14.7008-15.6928-13.9456-31.1232 2.2528-46.3104l79.9744-74.944z m157.9008 157.3696l30.4896 32.5312a527.0656 527.0656 0 0 0 41.0496-26.4896l10.5664 14.656a558.8096 558.8096 0 0 1-39.36 24.896l79.648 84.9792-11.3792 10.6688-82.3808-87.8976a388.2432 388.2432 0 0 1-25.2352 12.2368l71.5008 76.2816-10.6112 9.952c-23.104 8.9472-47.4688 11.9872-73.0688 9.12 4.7808 22.5728 14.3872 45.1072 28.8256 67.5904-9.4464 0.1984-17.12 0.64-23.008 1.3504-9.9392-21.504-17.472-45.4592-22.5728-71.872-21.2672-5.1136-47.4496-16.4096-78.5408-33.8624 1.4016-6.72 2.3232-13.3504 2.7328-19.8912 30.208 19.0656 54.8096 31.4048 73.8176 36.9856-1.1072-24.288 4.416-47.5264 16.576-69.7024-38.624 15.0976-76.0128 21.4528-112.1728 19.0336 1.2992-6.4192 2.24-12.4096 2.8224-17.9584 42.5344 3.5648 88.0896-7.2128 136.6784-32.3328l-40-42.6816 11.5392-10.816c13.568-4.8832 26.976-10.2208 40.192-15.9936l8.288 15.6224c-12.0576 4.7488-24.192 9.28-36.3968 13.5936z m51.6032 138.2784l-52.1024-55.5968c-9.8752 17.92-13.5296 38.5344-10.9504 61.8304 23.4048 3.0016 44.4288 0.9216 63.0528-6.2336z m43.7824-85.5232l14.9632-1.3056a638.6304 638.6304 0 0 1 7.2576 47.5072l-17.7792 1.0624a519.68 519.68 0 0 0-4.4416-47.264z m99.424 167.1168l11.5392 12.3072-23.6864 22.2016 44.5504 47.5264-53.216 49.8688c-12.096 11.3408-23.0016 11.8336-32.7104 1.4784-2.496-2.6688-9.6-10.3552-21.3184-23.0592 2.8032-3.7888 6.1888-8.5056 10.144-14.144 8.9984 10.8352 14.4576 17.28 16.3776 19.3344 6.24 7.0592 12.6272 7.52 19.1936 1.3696l39.0656-36.6144-33.1584-35.3792-75.8208 71.072-11.5392-12.3072 75.8272-71.072-32.4352-34.6112-64.1344 60.1216-11.3856-12.1472 60.672-56.864a510.8928 510.8928 0 0 1-47.4432 2.8608 96 96 0 0 0 2.0928-18.4256c37.3184 0.3648 72.544-3.7696 105.6896-12.384l-40.7936-43.5328 11.072-10.3808 46.1312 49.2224a352.672 352.672 0 0 0 31.6928-11.5008l6.4704 16.768a545.5488 545.5488 0 0 1-25.1072 8.6592l80.3648 85.7472-11.072 10.3744-85.6256-91.3536a498.048 498.048 0 0 1-49.1904 10.7072l34.0992 36.3776 23.6544-22.2208z" fill="#FBFBFB" p-id="4214"></path></svg>