<?xml version="1.0" standalone="no"?><!DOCTYPE svg PUBLIC "-//W3C//DTD SVG 1.1//EN" "http://www.w3.org/Graphics/SVG/1.1/DTD/svg11.dtd"><svg t="1639970080106" class="icon" viewBox="0 0 1024 1024" version="1.1" xmlns="http://www.w3.org/2000/svg" p-id="3193" xmlns:xlink="http://www.w3.org/1999/xlink" width="200" height="200"><defs><style type="text/css"></style></defs><path d="M511.232 0C675.669333 0 809.386667 130.88 809.386667 291.882667c0 70.634667-25.813333 135.530667-68.736 186.090666a425.024 425.024 0 0 1 72.896 57.258667c80.512 79.018667 124.949333 183.872 125.141333 295.402667 0 69.546667-18.048 119.36-55.061333 152.085333-28.48 25.28-66.837333 38.485333-116.970667 40.896-5.888 0.192-11.946667 0.362667-18.048 0.362667-32.469333 0-67.584-3.52-104.426667-7.253334-42.346667-4.266667-86.4-8.725333-132.16-8.725333-45.76 0-89.621333 4.48-132.16 8.746667-43.861333 4.458667-85.248 8.533333-122.453333 6.869333-50.346667-2.410667-88.512-15.786667-116.992-40.896C103.381333 950.186667 85.333333 900.373333 85.333333 830.634667c0-111.530667 44.245333-216.384 124.949334-295.210667a418.026667 418.026667 0 0 1 71.957333-56.896c-43.093333-50.56-69.12-115.626667-69.12-186.666667C213.12 130.901333 346.794667 0 511.232 0z m137.856 539.242667c-27.306667 12.117333-56.64 20.778667-87.36 25.386666l39.530667 55.402667L554.666667 682.666667v128h-85.333334v-128l-43.648-61.909334 36.8-55.722666a339.733333 339.733333 0 0 1-89.386666-25.386667c-119.402667 51.328-202.88 167.104-202.88 301.354667 0 35.52 5.930667 61.162667 16.554666 70.4 21.248 18.474667 93.269333 11.52 162.965334 4.522666 48.64-4.714667 103.466667-10.261333 161.898666-10.261333 58.410667 0 113.450667 5.546667 161.898667 10.261333 69.674667 6.784 141.696 13.952 162.944-4.522666 10.624-9.237333 16.789333-34.88 16.362667-70.4 0-134.464-83.925333-250.453333-203.733334-301.76zM511.232 99.690667c-105.898667 0-192 86.101333-192 192 0 105.92 86.101333 192 192 192 105.92 0 192-86.08 192-192 0-105.898667-86.08-192-192-192z" p-id="3194"></path></svg>