<?xml version="1.0" standalone="no"?><!DOCTYPE svg PUBLIC "-//W3C//DTD SVG 1.1//EN" "http://www.w3.org/Graphics/SVG/1.1/DTD/svg11.dtd"><svg t="1639970326182" class="icon" viewBox="0 0 1364 1024" version="1.1" xmlns="http://www.w3.org/2000/svg" p-id="13711" xmlns:xlink="http://www.w3.org/1999/xlink" width="266.40625" height="200"><defs><style type="text/css"></style></defs><path d="M681.529647 201.93471c102.331779 0 192.383744 49.119254 249.007328 125.526982l39.568288 10.91539c-58.67022-97.556296-165.777482-163.048634-288.575616-163.048634-59.352432 0-114.611592 15.690873-163.048634 42.297135l39.568287 10.91539c38.203864-17.737508 79.818787-26.606262 123.480347-26.606263z m203.981346-17.737508l21.830779 17.737508 6.822119-26.606262 24.559627-14.326449-24.559627-14.326449-6.822119-26.606263-21.830779 17.737508-27.970687-2.046635 10.91539 25.241839-10.91539 25.241838 27.970687-2.046635z m-375.216523-58.67022l-22.512991-15.690873-4.775483 27.288475-23.195203 17.055296 24.559627 11.597602 8.186542 25.92405 19.784144-19.784144 27.970686-0.682211-12.279813-24.559627 8.868754-26.606263c0.682212 0-26.606262 5.457695-26.606263 5.457695z m208.074617-37.521652l-16.373084-21.148568-12.962026 24.559627-27.288474 8.868754 19.784144 18.41972v27.288475l25.241839-12.962026 26.606262 7.504331-4.093271-26.606263 17.055296-22.512991-27.970686-3.411059z m301.537642 169.188541l-23.195203-16.373085-3.41106 27.288474-21.830779 16.373085 25.241839 12.279814 9.550966 25.92405 19.101932-19.101932h27.970686l-13.644237-24.559627 7.50433-25.92405-27.288474 4.093271zM1323.491006 460.493005l-1171.357761-313.817455c-28.652898-7.50433-57.988008 9.550966-66.174551 38.203864L2.046636 497.332445c-7.50433 28.652898 9.550966 57.988008 38.203864 66.17455l1171.357761 313.817455c28.652898 7.50433 57.988008-9.550966 66.17455-38.203864l83.912059-312.453031c7.50433-28.652898-9.550966-58.67022-38.203864-66.17455z m8.186542 72.314457l-77.08994 286.52898c-5.457695 21.830779-27.970686 34.110593-49.801465 28.652898L60.034644 540.994004c-21.830779-5.457695-34.110593-27.970686-28.652898-49.801466l77.08994-286.52898c5.457695-21.830779 27.970686-34.110593 49.801465-28.652898l1145.433711 306.995336c21.148568 6.139907 34.110593 27.970686 27.970686 49.801466zM681.529647 26.606262c224.447702 0 413.420386 152.815456 468.679547 359.52565l30.017322 8.186542C1127.013991 168.506329 923.714857 0 681.529647 0 534.854097 0 402.504997 62.081279 309.041972 161.001999l30.017322 8.186542C426.382412 81.183211 547.816123 26.606262 681.529647 26.606262z m124.162558 769.534977c-37.521652 16.373085-79.818787 25.924051-123.480346 25.924051-102.331779 0-192.383744-49.119254-249.007329-125.526982l-39.568287-10.91539c58.67022 97.556296 165.777482 163.048634 288.575616 163.048634 59.352432 0 114.611592-15.690873 163.048634-42.297135l-39.568288-10.233178z m-289.257828 55.941373l-21.148568-17.737509-6.822118 25.924051-23.877415 14.326449 23.877415 14.326449 6.822118 25.924051 21.148568-17.737509 27.970686 2.046636-10.915389-25.241839 10.915389-25.241839-27.970686 3.41106z m165.09527 83.229846l16.373085 21.148568 12.962025-24.559627 26.606262-9.550966-19.784144-18.41972v-27.288474l-25.241838 12.962025-26.606263-7.504331 4.093271 26.606263-16.373084 22.512991 27.970686 4.093271zM341.105929 766.123917l21.83078 17.737509 5.457695-26.606263 23.195203-14.326449-24.559627-14.326449-8.186542-26.606262-20.466356 17.737508-27.970686-2.046636 11.597601 25.241839-9.550966 25.241839 28.652898-2.046636z m340.423718 230.587609c-224.447702 0-413.420386-152.815456-468.679547-359.52565l-30.017322-8.186542c53.212525 225.812125 255.829447 394.318454 498.696869 394.318454 146.67555 0 279.02465-62.081279 372.487675-161.001999l-30.017322-8.186542c-87.323118 88.687542-208.074617 142.582278-342.470353 142.582279z m195.112592-98.92072l21.830779 15.690873 4.775483-27.288474 22.512991-17.055297-24.559627-11.597602-8.186542-25.92405-19.784144 19.784144-27.288474 0.682212 12.279813 24.559627-8.868754 26.606262 27.288475-5.457695z" fill="#d81e06" p-id="13712"></path><path d="M277.660227 378.627582l99.602931 26.606262 7.50433-28.652898-85.958694-23.195203 8.868754-32.063958 85.958695 23.195204 9.550966-35.475017 34.792804 9.550966-9.550966 35.475017 88.687542 23.877415-8.186542 31.381745-88.687542-23.877415-7.50433 28.652898 100.967355 27.288475-8.868755 32.063957-89.369753-23.877415c17.055296 36.157229 42.297135 66.856762 76.407728 91.416389-10.91539 8.186542-21.830779 16.373085-33.428381 25.924051-27.288474-26.606262-47.75483-57.988008-62.081279-94.145237L373.169887 559.413724l-34.792805-9.550966L361.572285 465.9507c-27.288474 21.148568-61.399067 38.203864-100.285143 50.483677-4.775483-12.962025-10.233178-25.241839-15.690873-36.83944 43.661559-8.868754 81.183211-23.877415 111.882745-45.025983l-88.687542-23.877415c0.682212 0 8.868754-32.063957 8.868755-32.063957z m420.924716 12.279813l42.979347 7.504331c0.682212 7.50433 0.682212 15.690873 1.364424 25.92405l90.051966 24.559627-12.279814 45.708195-34.110593-9.550966 4.775483-19.101932L631.728181 422.971352l-4.775483 19.101932-34.110593-9.550966 12.279814-45.708194 96.191872 25.924051c-1.364424-8.186542-2.046636-15.008661-2.728848-21.83078zM571.693538 575.786809L607.168554 443.437708l79.818788 21.148568 5.457695-19.101932 35.475016 9.550966-5.457695 19.101932 79.818788 21.148567-35.475017 132.349101-33.428381-8.868754 3.411059-11.597602-46.390406-12.279813-12.962025 49.119254-35.475017-9.550966 12.962025-49.119254-46.390406-12.279814-3.411059 11.597602-33.428381-8.868754z m56.623584-75.725517l46.390406 12.279814 5.457695-21.148568-46.390406-12.279813-5.457695 21.148567z m-12.279814 46.390407l46.390407 12.279813 5.457695-21.148567-46.390407-12.279814-5.457695 21.148568z m145.311126-33.428381l-46.390406-12.279814-5.457695 21.148568 46.390407 12.279813 5.457694-21.148567z m-64.127914 55.25916l46.390406 12.279814 5.457695-21.148568-46.390406-12.279813-5.457695 21.148567z m169.188541 17.737509c19.101932-18.41972 34.110593-37.521652 47.072618-58.67022l-27.288474-7.504331 8.868754-32.063957 29.33511 8.186542 11.597601-43.661559 31.381746 8.186543-11.597602 43.661559 24.559627 6.822118-8.868754 32.063958-24.559627-6.822119-5.457695 19.101932c8.186542 10.91539 16.373085 22.512991 25.241839 35.475017l-28.652898 17.737508c-2.728847-4.093271-4.775483-8.868754-6.822119-12.962025l-28.652898 107.789473-31.381745-8.186542 27.288474-101.649567c-10.233178 13.644237-22.512991 27.288474-35.475017 40.2505 1.364424-19.101932 2.728847-34.792805 3.41106-47.75483z m268.10926-19.784144l-80.500999-21.148568c-11.597602 10.233178-23.877415 20.466356-36.839441 30.699534l31.381746 6.822118c11.597602-8.868754 22.512991-18.41972 32.063957-28.652898l24.559627 23.877415c-42.297135 42.297135-95.50966 71.632245-158.955363 88.00533-5.457695-12.279813-10.233178-21.830779-15.008661-30.017322 30.017322-7.50433 56.623584-17.737508 80.501-30.699533-19.101932-3.411059-34.110593-6.139907-43.661559-8.186543l-2.046636-27.288474c11.597602-4.093271 27.288474-16.373085 47.072618-36.157228l-34.110593-8.868755 8.186543-29.33511 55.941372 15.008661c-1.364424-8.186542-2.728847-17.055296-4.093271-25.241838l38.886076 3.411059c2.046636 10.233178 4.093271 20.466356 5.457695 32.746169l59.352431 15.690873-8.186542 29.33511z m-39.568288 43.661559l23.195204 23.877415c-19.101932 16.373085-38.886076 30.017322-59.352432 41.614923 13.644237 18.41972 25.241839 34.792805 34.792805 51.16589l-32.74617 20.466355c-10.91539-20.466356-21.830779-39.568288-32.746169-55.941372-26.606262 11.597602-55.259161 19.784144-85.276482 24.559627-4.775483-10.91539-9.550966-21.148568-15.008661-31.381746 68.221186-13.644237 123.480346-38.203864 167.141905-74.361092z" fill="#d81e06" p-id="13713"></path></svg>