<?xml version="1.0" standalone="no"?><!DOCTYPE svg PUBLIC "-//W3C//DTD SVG 1.1//EN" "http://www.w3.org/Graphics/SVG/1.1/DTD/svg11.dtd"><svg t="1642064255252" class="icon" viewBox="0 0 1567 1024" version="1.1" xmlns="http://www.w3.org/2000/svg" p-id="3285" xmlns:xlink="http://www.w3.org/1999/xlink" width="306.0546875" height="200"><defs><style type="text/css"></style></defs><path d="M0 839.098052a783.881414 184.901948 0 1 0 1567.762828 0 783.881414 184.901948 0 1 0-1567.762828 0Z" fill="#F5F5F5" p-id="3286"></path><path d="M1342.412599 335.125013v217.636836H225.350229v-217.636836l268.275575-291.603886a81.89993 81.89993 0 0 1 61.832566-28.21973h456.846088a81.89993 81.89993 0 0 1 61.832566 28.21973z" fill="#FFFFFF" p-id="3287"></path><path d="M1342.412599 568.15728H225.350229a15.395431 15.395431 0 0 1-15.27001-15.395431v-217.636836a15.677628 15.677628 0 0 1 4.076183-10.4413l268.275575-291.603886A96.950453 96.950453 0 0 1 555.45837 0.000031h456.846088a97.201295 97.201295 0 0 1 73.496721 33.51877l267.962023 291.164912a15.677628 15.677628 0 0 1 4.076183 10.4413v217.636836a15.395431 15.395431 0 0 1-15.426786 15.395431z m-1101.666939-30.790862h1086.271508v-196.252551L1062.943197 54.056494a66.692631 66.692631 0 0 0-50.513318-23.234245H555.45837a66.379078 66.379078 0 0 0-50.168411 22.889337l-264.544299 287.402281z" fill="#DFDFDF" p-id="3288"></path><path d="M1276.942823 864.778007H290.820005a65.469776 65.469776 0 0 1-65.469776-65.501131v-464.057797h247.204843a67.16296 67.16296 0 0 1 61.362237 39.852531l33.111151 74.343314a74.750932 74.750932 0 0 0 68.323104 44.367688H931.25112a74.750932 74.750932 0 0 0 69.702735-47.691346l26.432481-68.040906a67.22567 67.22567 0 0 1 62.710513-42.831281h252.566592v464.057797a65.469776 65.469776 0 0 1-65.720618 65.501131z" fill="#FAFAFA" p-id="3289"></path><path d="M1276.942823 880.173438H290.820005A80.990628 80.990628 0 0 1 210.080219 799.276876v-464.057797a15.395431 15.395431 0 0 1 15.27001-15.395431h247.204843a82.589746 82.589746 0 0 1 75.252615 48.976911l33.142506 74.343313a59.574987 59.574987 0 0 0 54.244594 35.243309H931.25112a58.979238 58.979238 0 0 0 55.342028-37.87715l26.432481-68.040907a82.056706 82.056706 0 0 1 76.820378-52.645476h252.566592a15.395431 15.395431 0 0 1 15.426786 15.395431v464.057797a80.990628 80.990628 0 0 1-80.896562 80.896562zM240.74566 350.520444v448.756432a50.16841 50.16841 0 0 0 50.16841 50.168411h986.122819a50.16841 50.16841 0 0 0 50.168411-50.168411V350.520444h-237.359293a52.175147 52.175147 0 0 0-48.255739 33.017086L1015.157786 451.515726A89.581968 89.581968 0 0 1 931.25112 509.115332h-295.899556a90.334494 90.334494 0 0 1-82.401615-53.523423l-33.111151-74.343313a51.830239 51.830239 0 0 0-47.283726-30.728152z" fill="#DFDFDF" p-id="3290"></path></svg>